# WaveFront *.obj file (generated by Autodesk ATF)

mtllib Tire.mtl

g ソリッド3

v -5.111344 -1.086450 0.000000
v -5.111344 -1.086450 5.000000
v -5.111344 1.086450 0.000000
v -5.111344 1.086450 5.000000
v -4.227546 -3.071492 0.000000
v -4.227546 -3.071492 5.000000
v -4.227546 3.071492 0.000000
v -4.227546 3.071492 5.000000
v -2.612767 -4.525445 0.000000
v -2.612767 -4.525445 5.000000
v -2.612767 4.525445 0.000000
v -2.612767 4.525445 5.000000
v -0.546217 -5.196908 0.000000
v -0.546217 -5.196908 5.000000
v -0.546217 5.196908 0.000000
v -0.546217 5.196908 5.000000
v 1.614779 -4.969778 0.000000
v 1.614779 -4.969778 5.000000
v 1.614779 4.969778 0.000000
v 1.614779 4.969778 5.000000
v 3.496565 -3.883329 0.000000
v 3.496565 -3.883329 5.000000
v 3.496565 3.883329 0.000000
v 3.496565 3.883329 5.000000
v 4.773763 -2.125416 0.000000
v 4.773763 -2.125416 5.000000
v 4.773763 2.125416 0.000000
v 4.773763 2.125416 5.000000
v 5.225534 0.000000 0.000000
v 5.225534 0.000000 5.000000
vt -0.500000 0.000000 0.000000
vt -0.500000 -0.218887 0.000000
vt -0.500000 -0.437773 0.000000
vt -0.500000 -0.656660 0.000000
vt -0.500000 -0.875547 0.000000
vt -0.500000 -1.094433 0.000000
vt -0.500000 -1.313320 0.000000
vt -0.500000 -1.532207 0.000000
vt -0.500000 1.532207 0.000000
vt -0.500000 1.313320 0.000000
vt -0.500000 1.094433 0.000000
vt -0.500000 0.875547 0.000000
vt -0.500000 0.656660 0.000000
vt -0.500000 0.437773 0.000000
vt -0.500000 0.218887 0.000000
vt -0.000000 0.000000 0.000000
vt -0.000000 0.218887 0.000000
vt -0.000000 0.437773 0.000000
vt -0.000000 0.656660 0.000000
vt -0.000000 0.875547 0.000000
vt -0.000000 1.094433 0.000000
vt -0.000000 1.313320 0.000000
vt -0.000000 -1.751093 0.000000
vt -0.000000 -1.532207 0.000000
vt -0.000000 -1.313320 0.000000
vt -0.000000 -1.094433 0.000000
vt -0.000000 -0.875547 0.000000
vt -0.000000 -0.656660 0.000000
vt -0.000000 -0.437773 0.000000
vt -0.000000 -0.218887 0.000000
vt -0.000000 1.532207 0.000000
vt -0.000000 1.532207 0.000000
vt -0.500000 -1.751093 0.000000
vt -0.500000 -1.751093 0.000000
vt 0.522553 0.000000 0.000000
vt 0.477376 0.212542 0.000000
vt 0.349656 0.388333 0.000000
vt 0.161478 0.496978 0.000000
vt -0.054622 0.519691 0.000000
vt -0.261277 0.452545 0.000000
vt -0.422755 0.307149 0.000000
vt -0.511134 0.108645 0.000000
vt -0.511134 -0.108645 0.000000
vt -0.422755 -0.307149 0.000000
vt -0.261277 -0.452545 0.000000
vt -0.054622 -0.519691 0.000000
vt 0.161478 -0.496978 0.000000
vt 0.349656 -0.388333 0.000000
vt 0.477376 -0.212542 0.000000
vt -0.522553 0.000000 0.000000
vt -0.477376 -0.212542 0.000000
vt -0.349656 -0.388333 0.000000
vt -0.161478 -0.496978 0.000000
vt 0.054622 -0.519691 0.000000
vt 0.261277 -0.452545 0.000000
vt 0.422755 -0.307149 0.000000
vt 0.511134 -0.108645 0.000000
vt 0.511134 0.108645 0.000000
vt 0.422755 0.307149 0.000000
vt 0.261277 0.452545 0.000000
vt 0.054622 0.519691 0.000000
vt -0.161478 0.496978 0.000000
vt -0.349656 0.388333 0.000000
vt -0.477376 0.212542 0.000000
vn 0.100000 0.000000 0.000000
vn 0.091355 -0.040674 0.000000
vn 0.066913 -0.074314 0.000000
vn 0.030902 -0.095106 0.000000
vn -0.010453 -0.099452 0.000000
vn -0.050000 -0.086603 0.000000
vn -0.080902 -0.058779 0.000000
vn -0.097815 -0.020791 0.000000
vn -0.097815 0.020791 0.000000
vn -0.080902 0.058779 0.000000
vn -0.050000 0.086603 0.000000
vn -0.010453 0.099452 0.000000
vn 0.030902 0.095106 0.000000
vn 0.066913 0.074314 0.000000
vn 0.091355 0.040674 0.000000
vn 0.100000 0.000000 0.000000
vn 0.091355 0.040674 0.000000
vn 0.066913 0.074314 0.000000
vn 0.030902 0.095106 0.000000
vn -0.010453 0.099452 0.000000
vn -0.050000 0.086603 0.000000
vn -0.080902 0.058779 0.000000
vn -0.097815 0.020791 0.000000
vn -0.097815 -0.020791 0.000000
vn -0.080902 -0.058779 0.000000
vn -0.050000 -0.086603 0.000000
vn -0.010453 -0.099452 0.000000
vn 0.030902 -0.095106 0.000000
vn 0.066913 -0.074314 0.000000
vn 0.091355 -0.040674 0.000000
vn -0.097815 0.020791 0.000000
vn -0.097815 0.020791 0.000000
vn -0.097815 0.020791 0.000000
vn -0.097815 0.020791 0.000000
vn 0.000000 0.000000 0.100000
vn 0.000000 0.000000 0.100000
vn 0.000000 0.000000 0.100000
vn 0.000000 0.000000 0.100000
vn 0.000000 0.000000 0.100000
vn 0.000000 0.000000 0.100000
vn 0.000000 0.000000 0.100000
vn 0.000000 0.000000 0.100000
vn 0.000000 0.000000 0.100000
vn 0.000000 0.000000 0.100000
vn 0.000000 0.000000 0.100000
vn 0.000000 0.000000 0.100000
vn 0.000000 0.000000 0.100000
vn 0.000000 0.000000 0.100000
vn 0.000000 0.000000 0.100000
vn 0.000000 0.000000 -0.100000
vn 0.000000 0.000000 -0.100000
vn 0.000000 0.000000 -0.100000
vn 0.000000 0.000000 -0.100000
vn 0.000000 0.000000 -0.100000
vn 0.000000 0.000000 -0.100000
vn 0.000000 0.000000 -0.100000
vn 0.000000 0.000000 -0.100000
vn 0.000000 0.000000 -0.100000
vn 0.000000 0.000000 -0.100000
vn 0.000000 0.000000 -0.100000
vn 0.000000 0.000000 -0.100000
vn 0.000000 0.000000 -0.100000
vn 0.000000 0.000000 -0.100000
vn 0.000000 0.000000 -0.100000
usemtl 191,191,191
f 26/2/2 29/16/16 30/1/1
f 30/1/1 29/16/16 27/17/17
f 30/1/1 27/17/17 28/15/15
f 28/15/15 27/17/17 23/18/18
f 28/15/15 23/18/18 24/14/14
f 24/14/14 23/18/18 19/19/19
f 24/14/14 19/19/19 20/13/13
f 20/13/13 19/19/19 15/20/20
f 20/13/13 15/20/20 16/12/12
f 16/12/12 15/20/20 11/21/21
f 16/12/12 11/21/21 12/11/11
f 12/11/11 11/21/21 7/22/22
f 12/11/11 7/22/22 8/10/10
f 8/10/10 7/22/22 3/31/31
f 8/10/10 3/32/32 4/9/9
f 4/33/33 3/23/23 1/24/24
f 4/34/34 1/24/24 2/8/8
f 2/8/8 1/24/24 5/25/25
f 2/8/8 5/25/25 6/7/7
f 6/7/7 5/25/25 9/26/26
f 6/7/7 9/26/26 10/6/6
f 10/6/6 9/26/26 13/27/27
f 10/6/6 13/27/27 14/5/5
f 14/5/5 13/27/27 17/28/28
f 14/5/5 17/28/28 18/4/4
f 18/4/4 17/28/28 21/29/29
f 18/4/4 21/29/29 22/3/3
f 22/3/3 21/29/29 25/30/30
f 22/3/3 25/30/30 26/2/2
f 26/2/2 25/30/30 29/16/16
f 30/35/35 28/36/36 26/49/49
f 26/49/49 28/36/36 24/37/37
f 26/49/49 24/37/37 22/48/48
f 22/48/48 24/37/37 20/38/38
f 22/48/48 20/38/38 18/47/47
f 18/47/47 20/38/38 16/39/39
f 18/47/47 16/39/39 14/46/46
f 14/46/46 16/39/39 12/40/40
f 14/46/46 12/40/40 10/45/45
f 10/45/45 12/40/40 8/41/41
f 10/45/45 8/41/41 6/44/44
f 6/44/44 8/41/41 4/42/42
f 6/44/44 4/42/42 2/43/43
f 29/50/50 25/51/51 27/64/64
f 27/64/64 25/51/51 23/63/63
f 23/63/63 25/51/51 21/52/52
f 23/63/63 21/52/52 19/62/62
f 19/62/62 21/52/52 17/53/53
f 19/62/62 17/53/53 15/61/61
f 15/61/61 17/53/53 13/54/54
f 15/61/61 13/54/54 11/60/60
f 11/60/60 13/54/54 9/55/55
f 11/60/60 9/55/55 7/59/59
f 7/59/59 9/55/55 5/56/56
f 7/59/59 5/56/56 3/58/58
f 3/58/58 5/56/56 1/57/57

# 30 vertices
# 64 texture params
# 64 normals
# 56 facets

# 1 groups
